HIERARCHY
ROOT Hips
{
	OFFSET 0.00000 0.00000 0.00000
	CHANNELS 6 Xposition Yposition Zposition Yrotation Zrotation Xrotation 
	JOINT Lumbar
	{
		OFFSET 0 0 0
		CHANNELS 3 Zrotation Xrotation Yrotation
		JOINT Neck
		{
			OFFSET 0.00 0.2701 0.00
			CHANNELS 3 Zrotation Xrotation Yrotation
			End Site
			{
				OFFSET 0.00 0.1379 0.00
			}
		}
		JOINT RightShoulder
		{
			OFFSET 0.0119 0.2289 0.1181
			CHANNELS 3 Zrotation Xrotation Yrotation
			JOINT RightElbow
			{
				OFFSET 0.00 -0.1475 0.00
				CHANNELS 2 Zrotation Yrotation
				JOINT RightWrist
				{
					OFFSET 0.00 -0.1605 0.00
					CHANNELS 2 Zrotation Xrotation
					End Site
					{
						OFFSET 0.0040 -0.1068 0.0006
					}
				}
			}
		}
		JOINT LeftShoulder
		{
			OFFSET 0.0119 0.2289 -0.1181
			CHANNELS 3 Zrotation Xrotation Yrotation
			JOINT LeftElbow
			{
				OFFSET 0.00 -0.1475 0.00
				CHANNELS 2 Zrotation Yrotation
				JOINT LeftWrist
				{
					OFFSET 0.00 -0.1605 0.00
					CHANNELS 2 Zrotation Xrotation
					End Site
					{
						OFFSET 0.0040 -0.1068 -0.0006
					}
				}
			}
		}
	}
	JOINT RightHip
	{
		OFFSET 0.0316 -0.0424 0.0458
		CHANNELS 3 Zrotation Xrotation Yrotation
		JOINT RightKnee
		{
			OFFSET 0.00 -0.2438 0.00
			CHANNELS 1 Zrotation
			JOINT RightAnkle
			{
				OFFSET 0.00 -0.2449 0.00
				CHANNELS 3 Zrotation Xrotation Yrotation
				End Site
				{
					OFFSET 0.1237 -0.0542 0.0051
				}
			}
		}
	}
	JOINT LeftHip
	{
		OFFSET 0.0316 -0.0424 -0.0458
		CHANNELS 3 Zrotation Xrotation Yrotation
		JOINT LeftKnee
		{
			OFFSET 0.00 -0.2438 0.00
			CHANNELS 1 Zrotation
			JOINT LeftAnkle
			{
				OFFSET 0.00 -0.2449 0.00
				CHANNELS 3 Zrotation Xrotation Yrotation
				End Site
				{
					OFFSET 0.1237 -0.0542 -0.0051
				}
			}
		}
	}
}
MOTION
Frames: 28
Frame Time: 0.02
-0.34062 -0.00242 -0.24739 957.34164 -39.99213 -5.38675 45.54841 -0.0176 -7.72297 -11.56135 -5.26551 -2.11994 6.62805 -53.08435 0.33082 98.34573 102.51173 24.62266 0.17834 55.94436 8.8735 -31.54114 91.1571 -84.8476 16.26429 2.33325 58.65383 -0.80723 -14.86044 -33.12026 -7.62595 -3.22509 -3.85218 50.40841 8.73059 10.05081 -25.42336 -7.66642 2.70254 3.58817
-0.34116 -0.00246 -0.24616 957.36546 -40.1316 -5.26225 45.74959 -0.16154 -8.02525 -11.33975 -5.18879 -2.11994 5.17308 -52.42061 0.58222 98.49274 98.89131 22.40112 -0.54529 55.65157 8.96357 -31.8243 91.15886 -84.62703 14.34986 2.03313 58.34535 -0.16546 -15.85871 -32.0077 -7.53784 -3.05666 -3.76638 50.35942 8.68711 10.43821 -25.41747 -7.64791 2.6825 3.57899
-0.34214 -0.00246 -0.24464 957.41054 -40.3264 -5.13619 46.04464 -0.33078 -8.29545 -10.97995 -5.0373 -2.11994 4.07395 -51.56751 1.78202 97.93614 93.6714 18.35062 -1.31457 55.35625 9.04397 -32.28745 91.16648 -84.64543 11.69543 1.56235 57.86256 0.54925 -16.87062 -30.48136 -7.47113 -2.865 -3.67101 50.31498 8.58801 10.50786 -25.38592 -7.64891 2.69226 3.58733
-0.34293 -0.00248 -0.24323 957.44004 -40.48891 -5.01136 46.29431 -0.48392 -8.57573 -10.67773 -4.9235 -2.11994 2.89472 -50.78977 2.58162 97.71731 89.33405 15.19579 -2.00776 55.05579 9.12935 -32.64532 91.17303 -84.58307 9.49849 1.18639 57.45392 1.22878 -17.83185 -29.15483 -7.39686 -2.68581 -3.58123 50.2632 8.50979 10.70924 -25.37101 -7.64181 2.69028 3.58848
-0.3437 -0.00246 -0.24192 957.49119 -40.68297 -4.88503 46.5571 -0.65815 -8.87551 -10.39255 -4.79363 -2.11994 1.38497 -50.04556 3.25006 97.40896 84.30456 11.75422 -2.93404 54.77959 9.21126 -33.09929 91.16935 -84.40725 6.80828 0.73946 57.06578 1.92328 -18.98022 -27.77101 -7.31202 -2.49628 -3.48511 50.23385 8.45455 10.98262 -25.33401 -7.63087 2.67961 3.58572
-0.34462 -0.00253 -0.24034 957.50387 -40.82448 -4.76013 46.81395 -0.79318 -9.12498 -10.04101 -4.67952 -2.11994 0.6439 -49.1874 4.41112 97.13067 80.35235 8.49008 -3.39145 54.45323 9.29698 -33.39883 91.18884 -84.51515 4.95051 0.3987 56.5953 2.59832 -19.74402 -26.41471 -7.25454 -2.32389 -3.4004 50.15914 8.33713 11.02799 -25.33792 -7.63259 2.69406 3.59525
-0.34582 -0.00291 -0.23809 957.40205 -40.80027 -4.653 47.03445 -0.82172 -9.26644 -9.5392 -4.62863 -2.11994 1.92692 -48.10474 6.78105 97.03631 79.73444 6.04124 -2.4745 53.98828 9.4137 -33.20612 91.28145 -85.44471 5.72345 0.39721 55.92269 3.24089 -19.42065 -25.19235 -7.27105 -2.20141 -3.34889 49.95541 8.05484 10.46393 -25.45651 -7.66709 2.77659 3.63751
-0.34716 -0.00339 -0.23558 957.26225 -40.72217 -4.54523 47.24472 -0.80841 -9.35431 -8.97586 -4.59599 -2.11994 3.97241 -46.90765 9.60223 97.00868 80.26157 3.84971 -1.09654 53.4737 9.53141 -32.85651 91.39567 -86.63438 7.33109 0.50704 55.17643 3.85395 -18.71354 -24.02071 -7.31396 -2.09785 -3.30947 49.70734 7.71278 9.68783 -25.61983 -7.71338 2.88247 3.69108
-0.34843 -0.00382 -0.23319 957.14167 -40.67325 -4.42867 47.45785 -0.80885 -9.45179 -8.44241 -4.55421 -2.11994 5.67253 -45.73689 12.16247 97.0009 80.2962 1.63095 0.02689 52.9822 9.63738 -32.59245 91.49388 -87.64199 8.45659 0.56332 54.47516 4.45413 -18.19649 -22.85454 -7.34261 -1.98792 -3.26507 49.47988 7.40137 9.04436 -25.76347 -7.75254 2.97399 3.73758
-0.34975 -0.00427 -0.2308 957.01153 -40.60703 -4.34919 47.68289 -0.83214 -9.61026 -7.89744 -4.51348 -2.11994 7.37545 -44.66907 14.98296 96.76529 80.17687 -0.9985 1.34068 52.48706 9.79131 -32.27229 91.61897 -88.92657 9.98938 0.62776 53.71902 5.16673 -17.61445 -21.5528 -7.38142 -1.86765 -3.21807 49.24628 7.07199 8.24089 -25.8962 -7.79944 3.08242 3.79282
-0.351 -0.0047 -0.22834 956.89448 -40.56267 -4.19384 47.87813 -0.79792 -9.62953 -7.36176 -4.47574 -2.11994 9.25531 -43.36037 17.36697 97.01836 80.64585 -2.72761 2.36558 51.98938 9.84487 -32.03216 91.69239 -89.69398 10.88294 0.70184 53.06213 5.63867 -17.07564 -20.55169 -7.40518 -1.77382 -3.17958 49.02035 6.7683 7.71964 -26.07176 -7.83331 3.16073 3.83231
-0.35205 -0.00505 -0.22576 956.80084 -40.59651 -3.816 48.00425 -0.61221 -9.27641 -6.88499 -4.44325 -2.11994 11.38029 -41.43497 18.33923 98.69955 82.69084 -1.67182 2.50222 51.48259 9.62861 -32.02647 91.62478 -88.96192 9.80283 0.79391 52.69587 5.43946 -16.75817 -20.36365 -7.38 -1.74752 -3.16082 48.77911 6.53622 8.07154 -26.27574 -7.82341 3.15034 3.82535
-0.35303 -0.00537 -0.22312 956.72512 -40.65278 -3.36417 48.09817 -0.37068 -8.78538 -6.41773 -4.4132 -2.11994 13.66549 -39.27073 18.87022 100.85433 85.25718 0.22936 2.3288 50.97741 9.3101 -32.11015 91.50343 -87.70246 8.05759 0.8896 52.43273 5.00095 -16.49681 -20.4792 -7.33884 -1.74737 -3.15036 48.55546 6.33562 8.70899 -26.53554 -7.80074 3.10842 3.80197
-0.35404 -0.0057 -0.22053 956.65624 -40.69578 -2.95495 48.19946 -0.15624 -8.35846 -5.93392 -4.38147 -2.11994 15.91324 -37.20038 19.66098 102.73572 87.43614 1.50734 2.2824 50.48109 9.03332 -32.16878 91.40169 -86.68604 6.62028 0.97178 52.12476 4.68112 -16.20315 -20.46113 -7.3055 -1.73602 -3.13675 48.35538 6.12915 9.18906 -26.82242 -7.78713 3.08097 3.78631
-0.35504 -0.00605 -0.21785 956.52512 -40.75101 -2.50819 48.33147 0.06771 -7.92381 -5.49647 -4.35286 -2.11994 18.03985 -35.17784 20.21643 104.87161 90.27312 3.77555 2.30875 49.94337 8.77601 -32.1577 91.31971 -85.65729 5.17761 1.10619 51.80736 4.31974 -15.92085 -20.4269 -7.27071 -1.72278 -3.12113 48.02244 5.88211 9.77594 -26.8919 -7.76048 3.05475 3.77046
-0.35606 -0.00635 -0.21533 956.52548 -40.78543 -2.12155 48.39149 0.28354 -7.47295 -4.96935 -4.31796 -2.11994 20.44519 -33.01297 21.15318 106.58026 91.86879 4.21229 2.10636 49.49186 8.45455 -32.31336 91.18518 -84.53479 3.59006 1.13327 51.53275 3.98678 -15.63818 -20.49694 -7.23484 -1.71899 -3.11127 47.96853 5.73141 10.21365 -27.42377 -7.75744 3.01694 3.75034
-0.35714 -0.00654 -0.21326 956.90909 -40.76914 -1.92357 48.26488 0.47198 -7.01315 -4.16026 -4.26627 -2.11994 23.58689 -30.40683 23.22526 107.07013 89.73212 -0.89825 1.32606 49.28749 7.97612 -32.92301 90.90423 -83.20085 1.65264 0.84532 51.3721 3.80533 -15.2978 -20.78857 -7.19935 -1.73916 -3.11725 48.7013 5.80855 10.14635 -29.24095 -7.82566 2.96597 3.72797
-0.35823 -0.00668 -0.21135 957.41965 -40.72938 -1.78792 48.0664 0.64843 -6.54153 -3.26701 -4.20786 -2.11994 26.99556 -27.68581 25.69489 107.09968 86.35547 -7.82731 0.32878 49.1683 7.43847 -33.69526 90.5748 -81.80423 -0.39132 0.45191 51.24776 3.65846 -14.96332 -21.17291 -7.16327 -1.76725 -3.12837 49.70999 5.98732 9.92332 -31.51391 -7.9175 2.90269 3.70099
-0.35931 -0.00684 -0.20935 957.85659 -40.69229 -1.6206 47.89776 0.82451 -6.07439 -2.43345 -4.15163 -2.11994 30.27804 -25.08848 28.00167 107.28851 83.65732 -13.74189 -0.55783 49.00418 6.92998 -34.38373 90.27699 -80.489 -2.31602 0.11802 51.09293 3.48599 -14.6585 -21.50949 -7.12767 -1.78862 -3.13564 50.58 6.14022 9.78944 -33.56765 -7.99648 2.83709 3.67214
-0.36043 -0.00702 -0.20738 958.3628 -40.68864 -1.46433 47.73893 1.02737 -5.60672 -1.50915 -4.09914 -2.11994 33.59947 -22.18264 30.23371 107.70213 80.49354 -20.42922 -1.50872 48.86641 6.40474 -35.11701 89.93699 -78.93393 -4.55997 -0.26423 50.99928 3.34566 -14.22609 -21.88074 -7.09066 -1.82336 -3.14925 51.50946 6.20946 9.59267 -35.68791 -8.08386 2.80199 3.65857
-0.36147 -0.00714 -0.2054 958.75289 -40.61081 -1.30141 47.54421 1.17055 -5.13845 -0.7544 -4.03728 -2.11994 36.8855 -19.89311 32.70198 107.53521 77.99708 -25.93926 -2.3697 48.69388 5.90631 -35.79439 89.67383 -77.86818 -6.15886 -0.57136 50.78731 3.15127 -14.05109 -22.19747 -7.05662 -1.83268 -3.15122 52.3769 6.47536 9.4801 -37.76017 -8.1597 2.70314 3.61343
-0.36236 -0.00713 -0.20338 958.80584 -40.32238 -1.10068 47.25789 1.15461 -4.67865 -0.48349 -3.9507 -2.11994 40.13973 -19.35615 35.89567 105.84839 77.65003 -27.85021 -2.95915 48.40573 5.45862 -36.27776 89.6367 -78.19128 -5.91998 -0.64095 50.22385 2.78698 -14.66393 -22.34278 -7.03139 -1.76203 -3.11598 53.03522 7.27102 9.68836 -39.73216 -8.19669 2.41141 3.47239
-0.36318 -0.00707 -0.20133 958.73449 -39.96219 -0.89253 46.93999 1.0785 -4.21842 -0.38723 -3.855 -2.11994 43.32407 -19.44217 39.28471 103.59677 78.01223 -28.50123 -3.44363 48.07962 5.04866 -36.69882 89.6783 -79.00816 -5.03002 -0.63213 49.54273 2.37052 -15.52112 -22.42841 -7.00917 -1.66683 -3.06951 53.61578 8.25877 9.97518 -41.61232 -8.22177 2.05966 3.30162
-0.36402 -0.00702 -0.19927 958.71071 -39.64222 -0.69061 46.64332 1.02755 -3.75377 -0.21396 -3.76375 -2.11994 46.45297 -19.22712 42.47355 101.62013 78.04706 -29.66811 -3.95495 47.76987 4.64523 -37.14788 89.68303 -79.58605 -4.45574 -0.66206 48.92511 1.98718 -16.21421 -22.53825 -6.98536 -1.58789 -3.03067 54.21269 9.15085 10.1926 -43.44079 -8.25286 1.74875 3.1511
-0.36493 -0.00701 -0.1973 958.73007 -39.28912 -0.47773 46.31504 0.98436 -3.30632 -0.02691 -3.67091 -2.11994 49.95797 -19.07643 46.14244 99.54866 78.06754 -31.13148 -4.56177 47.4661 4.135 -37.60397 89.69136 -80.22008 -3.8048 -0.68252 48.26561 1.56533 -17.12986 -22.66268 -6.9625 -1.48777 -2.98144 54.90026 10.08191 10.55012 -45.68235 -8.28132 1.38072 2.9722
-0.36565 -0.00691 -0.19513 958.62711 -38.98856 -0.28638 46.04611 0.91219 -2.82536 0.08777 -3.5794 -2.11994 52.66134 -18.95026 48.85768 97.54878 78.29334 -31.66192 -4.94235 47.1407 3.86288 -38.02854 89.7106 -80.85901 -3.15396 -0.70269 47.66603 1.21066 -17.64197 -22.74274 -6.93834 -1.42574 -2.95102 55.37588 10.976 10.63261 -47.03233 -8.31331 1.11683 2.84508
-0.36591 -0.00655 -0.1924 958.22673 -38.84837 -0.14522 45.94856 0.76337 -2.2331 0.05455 -3.49298 -2.11994 53.14982 -18.66159 48.84716 95.86785 79.00117 -29.84765 -4.71786 46.75703 4.1882 -38.37988 89.74837 -81.36025 -2.6908 -0.74084 47.25132 1.0559 -16.96149 -22.70214 -6.91021 -1.47558 -2.97591 55.29332 11.72063 9.97248 -45.97115 -8.34718 1.16169 2.87099
-0.36597 -0.00611 -0.18946 957.70497 -38.76413 -0.02763 45.91217 0.58957 -1.61079 -0.04737 -3.40838 -2.11994 52.83586 -18.39046 47.87666 94.28473 79.88446 -27.14002 -4.26919 46.35451 4.76106 -38.701 89.79285 -81.85528 -2.24424 -0.78083 46.90284 0.96973 -15.86978 -22.62114 -6.88065 -1.5644 -3.01997 54.99764 12.42057 9.02899 -44.00992 -8.38662 1.31223 2.94948
